# xmcd
#
# Track frame offsets: 
#        150
#        24747
#        38025
#        56985
#        78572
#        99582
#        121980
#        160120
#        174927
#        179430
#        198615
#        214577
#
# Disc length: 3368 seconds
#
# Revision: 0
# Processed by: cddbd v1.5.2PL0 Copyright (c) Steve Scherf et al.
# Submitted via: ExactAudioCopy v0.95b4
#
DISCID=a20d260c
DTITLE=3rd degree - 6-pack
DYEAR=1992
DGENRE=Blues
TTITLE0=Third Degree
TTITLE1=Unhappy Morning
TTITLE2=Treat Me Like A Fool
TTITLE3=Sixpack
TTITLE4=Sixpack - extended version
TTITLE5=Tuscany Blues
TTITLE6=Stormy Monday
TTITLE7=Livin'
TTITLE8=Kai Uwe
TTITLE9=Potato Joe
TTITLE10=Lilly
TTITLE11=Baby whatcha want me to do
EXTD=
EXTT0=
EXTT1=
EXTT2=
EXTT3=
EXTT4=
EXTT5=
EXTT6=
EXTT7=
EXTT8=
EXTT9=
EXTT10=
EXTT11=
PLAYORDER=
